<?xml version="1.0" encoding="utf-8"?>
<!-- Generator: Adobe Illustrator 24.2.0, SVG Export Plug-In . SVG Version: 6.00 Build 0)  -->
<svg version="1.1" id="Layer_1" xmlns="http://www.w3.org/2000/svg" xmlns:xlink="http://www.w3.org/1999/xlink" x="0px" y="0px"
	 viewBox="0 0 146 146" style="enable-background:new 0 0 146 146;" xml:space="preserve">
<style type="text/css">
	.st0{fill-rule:evenodd;clip-rule:evenodd;fill:#DF0074;}
	.st1{fill:#FFFFFF;}
</style>
<path class="st0" d="M73,146c40.3,0,73-32.7,73-73c0-40.3-32.7-73-73-73C32.7,0,0,32.7,0,73C0,113.3,32.7,146,73,146z"/>
<path class="st1" d="M47.7,49.8c-1.7-4-3.3-6.9-5-8.5c-1.6-1.7-3.6-2.7-5.8-3v-2.2l4.6-0.2c4.8,0,9,0.9,12.7,2.7s6.6,5.5,9,11.2
	l17.2,40.8l23-53.6h5.6l-31.5,73.1h-4.4L47.7,49.8z"/>
</svg>
